<?xml version="1.0" encoding="UTF-8" standalone="no"?>
<!DOCTYPE svg PUBLIC "-//W3C//DTD SVG 1.1//EN" "http://www.w3.org/Graphics/SVG/1.1/DTD/svg11.dtd">
<svg width="100%" height="100%" viewBox="0 0 100 100" version="1.1" xmlns="http://www.w3.org/2000/svg" xmlns:xlink="http://www.w3.org/1999/xlink" xml:space="preserve" xmlns:serif="http://www.serif.com/" style="fill-rule:evenodd;clip-rule:evenodd;stroke-linejoin:round;stroke-miterlimit:1.41421;">
    <g transform="matrix(1.27252,0,0,1.27252,-14.1032,-16.7804)">
        <g transform="matrix(1,0,0,1,0,1.03015)">
            <path d="M65.6,65.4C68.5,65.1 70.7,62.6 70.6,59.6C70.5,56.6 68,54.2 65,54.2L64.8,54.2C61.7,54.3 59.3,56.9 59.4,60C59.5,61.5 60.1,62.8 61,63.7C57.6,70.4 52.4,75.3 44.6,79.4C39.3,82.2 33.8,83.2 28.3,82.5C23.8,81.9 20.3,79.9 18.1,76.6C14.9,71.7 14.6,66.4 17.3,61.1C19.2,57.3 22.2,54.5 24.1,53.1C23.7,51.8 23.1,49.6 22.8,48C8.3,58.5 9.8,72.7 14.2,79.4C17.5,84.4 24.2,87.5 31.6,87.5C33.6,87.5 35.6,87.3 37.6,86.8C50.4,84.3 60.1,76.7 65.6,65.4Z" style="fill:rgb(118,74,188);fill-rule:nonzero;"/>
        </g>
        <g transform="matrix(1,0,0,1,0,1.03015)">
            <path d="M83.2,53C75.6,44.1 64.4,39.2 51.6,39.2L50,39.2C49.1,37.4 47.2,36.2 45.1,36.2L44.9,36.2C41.8,36.3 39.4,38.9 39.5,42C39.6,45 42.1,47.4 45.1,47.4L45.3,47.4C47.5,47.3 49.4,45.9 50.2,44L52,44C59.6,44 66.8,46.2 73.3,50.5C78.3,53.8 81.9,58.1 83.9,63.3C85.6,67.5 85.5,71.6 83.7,75.1C80.9,80.4 76.2,83.3 70,83.3C66,83.3 62.2,82.1 60.2,81.2C59.1,82.2 57.1,83.8 55.7,84.8C60,86.8 64.4,87.9 68.6,87.9C78.2,87.9 85.3,82.6 88,77.3C90.9,71.5 90.7,61.5 83.2,53Z" style="fill:rgb(118,74,188);fill-rule:nonzero;"/>
        </g>
        <g transform="matrix(1,0,0,1,0,1.03015)">
            <path d="M32.4,67.1C32.5,70.1 35,72.5 38,72.5L38.2,72.5C41.3,72.4 43.7,69.8 43.6,66.7C43.5,63.7 41,61.3 38,61.3L37.8,61.3C37.6,61.3 37.3,61.3 37.1,61.4C33,54.6 31.3,47.2 31.9,39.2C32.3,33.2 34.3,28 37.8,23.7C40.7,20 46.3,18.2 50.1,18.1C60.7,17.9 65.2,31.1 65.5,36.4C66.8,36.7 69,37.4 70.5,37.9C69.3,21.7 59.3,13.3 49.7,13.3C40.7,13.3 32.4,19.8 29.1,29.4C24.5,42.2 27.5,54.5 33.1,64.2C32.6,64.9 32.3,66 32.4,67.1Z" style="fill:rgb(118,74,188);fill-rule:nonzero;"/>
        </g>
    </g>
</svg>
